<svg width="22" height="21" viewBox="0 0 22 21" version="1.1" xmlns="http://www.w3.org/2000/svg" xmlns:xlink="http://www.w3.org/1999/xlink">
<title>&#239;&#133;&#189;</title>
<desc>Created using Figma</desc>
<g id="Canvas" transform="translate(-1389 421)">
<g id="&#239;&#133;&#189;">
<use xlink:href="#path0_fill" transform="translate(1388 -423)" fill="url(#paint0_linear)"/>
</g>
</g>
<defs>
<linearGradient id="paint0_linear" x1="0" y1="0" x2="1" y2="0" gradientUnits="userSpaceOnUse" gradientTransform="matrix(44.7408 2.0368e-06 -5.39081e-06 1093.5 2.77874e-06 -534.75)">
<stop offset="0" stop-color="#F27A54"/>
<stop offset="1" stop-color="#A154F2"/>
</linearGradient>
<path id="path0_fill" d="M 15.4252 20.5179C 14.3672 20.9598 13.2154 21.2143 11.9967 21.2143C 9.86719 21.2143 7.92522 20.4509 6.39844 19.2054C 6.39844 19.2054 6.51897 19.2857 6.59933 19.3527C 8.28683 15.683 13.4967 13.8616 13.4967 13.8616C 13.51 13.8616 13.5368 13.8482 13.5502 13.8482C 14.7824 17.0625 15.2913 19.7411 15.4252 20.5179ZM 12.9475 12.3884C 12.8404 12.4286 12.7199 12.4554 12.5993 12.4955C 12.5993 12.4955 7.85826 14.0223 5.46094 18.2946C 4.06808 16.7411 3.21094 14.6786 3.21094 12.4286C 3.21094 12.3348 3.21094 12.2411 3.22433 12.1473C 3.37165 12.1473 7.71094 12.2545 12.2377 10.9018C 12.4922 11.3973 12.7333 11.8929 12.9475 12.3884ZM 11.5145 9.54911C 7.29576 10.6607 3.62612 10.6205 3.39844 10.6205C 3.97433 7.90179 5.79576 5.63839 8.24665 4.48661C 8.36719 4.64732 9.98772 6.84375 11.5145 9.54911ZM 20.6752 13.8214C 20.2734 16.2723 18.8806 18.3884 16.9118 19.7143C 16.8181 19.192 16.3493 16.6071 15.1975 13.433C 18.0368 12.9911 20.4877 13.7679 20.6752 13.8214ZM 9.89397 3.89732C 9.88058 3.89732 9.86719 3.91071 9.86719 3.91071C 9.88058 3.89732 9.88058 3.89732 9.89397 3.89732ZM 17.7958 5.83929C 17.769 5.87946 16.5234 7.78125 13.2154 9.01339C 11.7154 6.25446 10.0547 4.07143 9.92076 3.89732C 10.5904 3.73661 11.2868 3.64286 11.9967 3.64286C 14.2199 3.64286 16.2556 4.47321 17.7958 5.83929ZM 20.7824 12.3348C 20.6752 12.3214 17.6886 11.6652 14.6618 12.0536C 14.5949 11.9062 14.5413 11.7455 14.4743 11.5982C 14.2868 11.1696 14.0859 10.7411 13.885 10.3259C 17.3538 8.90625 18.76 6.87054 18.7868 6.84375C 20.019 8.34375 20.7556 10.2589 20.7824 12.3348ZM 22.2824 12.4286C 22.2824 6.75 17.6752 2.14286 11.9967 2.14286C 6.31808 2.14286 1.71094 6.75 1.71094 12.4286C 1.71094 18.1071 6.31808 22.7143 11.9967 22.7143C 17.6752 22.7143 22.2824 18.1071 22.2824 12.4286Z"/>
</defs>
</svg>
