<svg width="22" height="21" viewBox="0 0 22 21" version="1.1" xmlns="http://www.w3.org/2000/svg" xmlns:xlink="http://www.w3.org/1999/xlink">
<title>&#239;&#130;&#130;</title>
<desc>Created using Figma</desc>
<g id="Canvas" transform="translate(-1341 421)">
<g id="&#239;&#130;&#130;">
<use xlink:href="#path0_fill" transform="translate(1340 -423)" fill="url(#paint0_linear)"/>
</g>
</g>
<defs>
<linearGradient id="paint0_linear" x1="0" y1="0" x2="1" y2="0" gradientUnits="userSpaceOnUse" gradientTransform="matrix(44.7408 2.0368e-06 -5.39081e-06 1093.5 2.77874e-06 -534.75)">
<stop offset="0" stop-color="#F27A54"/>
<stop offset="1" stop-color="#A154F2"/>
</linearGradient>
<path id="path0_fill" d="M 18.4252 2.14286L 5.56808 2.14286C 3.43862 2.14286 1.71094 3.87054 1.71094 6L 1.71094 18.8571C 1.71094 20.9866 3.43862 22.7143 5.56808 22.7143L 12.6931 22.7143L 12.6931 14.7455L 10.0145 14.7455L 10.0145 11.6384L 12.6931 11.6384L 12.6931 9.34821C 12.6931 6.69643 14.327 5.25 16.6975 5.25C 17.8225 5.25 18.8002 5.33036 19.0815 5.37054L 19.0815 8.14286L 17.4475 8.15625C 16.1484 8.15625 15.9074 8.75893 15.9074 9.65625L 15.9074 11.6384L 18.9743 11.6384L 18.5725 14.7455L 15.9074 14.7455L 15.9074 22.7143L 18.4252 22.7143C 20.5547 22.7143 22.2824 20.9866 22.2824 18.8571L 22.2824 6C 22.2824 3.87054 20.5547 2.14286 18.4252 2.14286Z"/>
</defs>
</svg>
