<svg width="22" height="21" viewBox="0 0 22 21" version="1.1" xmlns="http://www.w3.org/2000/svg" xmlns:xlink="http://www.w3.org/1999/xlink">
<title>&#239;&#130;&#155;</title>
<desc>Created using Figma</desc>
<g id="Canvas" transform="translate(-1437 421)">
<g id="&#239;&#130;&#155;">
<use xlink:href="#path0_fill" transform="translate(1436 -423)" fill="url(#paint0_linear)"/>
</g>
</g>
<defs>
<linearGradient id="paint0_linear" x1="0" y1="0" x2="1" y2="0" gradientUnits="userSpaceOnUse" gradientTransform="matrix(44.7408 2.0368e-06 -5.39081e-06 1093.5 2.77874e-06 -534.75)">
<stop offset="0" stop-color="#F27A54"/>
<stop offset="1" stop-color="#A154F2"/>
</linearGradient>
<path id="path0_fill" d="M 11.9967 2.14286C 6.31808 2.14286 1.71094 6.75 1.71094 12.4286C 1.71094 16.9688 4.65737 20.8259 8.74219 22.192C 9.26451 22.2857 9.45201 21.9643 9.45201 21.6964C 9.45201 21.442 9.43862 20.6384 9.43862 19.7812C 9.43862 19.7812 6.57254 20.3973 5.96987 18.5625C 5.96987 18.5625 5.50112 17.3705 4.83147 17.0625C 4.83147 17.0625 3.89397 16.4196 4.89844 16.433C 4.89844 16.433 5.91629 16.5134 6.47879 17.4911C 7.37612 19.0714 8.87612 18.6161 9.4654 18.3482C 9.55915 17.692 9.82701 17.2366 10.1217 16.9688C 7.83147 16.7143 5.43415 15.8304 5.43415 11.8929C 5.43415 10.7679 5.83594 9.85714 6.49219 9.13393C 6.38504 8.86607 6.03683 7.82143 6.59933 6.40179C 7.45647 6.13393 9.42522 7.45982 9.42522 7.45982C 10.2422 7.23214 11.1261 7.11161 11.9967 7.11161C 12.8672 7.11161 13.7511 7.23214 14.5681 7.45982C 14.5681 7.45982 16.5368 6.13393 17.394 6.40179C 17.9565 7.82143 17.6083 8.86607 17.5011 9.13393C 18.1574 9.85714 18.5592 10.7679 18.5592 11.8929C 18.5592 15.8438 16.1484 16.7143 13.8583 16.9688C 14.2333 17.2902 14.5547 17.9062 14.5547 18.8705C 14.5547 20.25 14.5413 21.3616 14.5413 21.6964C 14.5413 21.9643 14.7288 22.2857 15.2511 22.192C 19.3359 20.8259 22.2824 16.9688 22.2824 12.4286C 22.2824 6.75 17.6752 2.14286 11.9967 2.14286ZM 5.60826 16.9152C 5.58147 16.9688 5.50112 16.9821 5.43415 16.942C 5.35379 16.9018 5.31362 16.8348 5.3404 16.7812C 5.36719 16.7411 5.43415 16.7277 5.51451 16.7545C 5.59487 16.7946 5.63504 16.8616 5.60826 16.9152ZM 6.02344 17.3705C 5.96987 17.4241 5.87612 17.3973 5.80915 17.3304C 5.74219 17.25 5.72879 17.1562 5.78237 17.1161C 5.83594 17.0625 5.92969 17.0893 5.99665 17.1562C 6.06362 17.2366 6.07701 17.3304 6.02344 17.3705ZM 6.42522 17.9732C 6.37165 18.0134 6.26451 17.9732 6.19754 17.8795C 6.13058 17.7857 6.13058 17.6786 6.19754 17.6384C 6.26451 17.5848 6.37165 17.625 6.42522 17.7188C 6.49219 17.8125 6.49219 17.9196 6.42522 17.9732ZM 6.98772 18.5357C 6.93415 18.6027 6.81362 18.5893 6.71987 18.4955C 6.62612 18.4152 6.59933 18.2946 6.66629 18.2411C 6.71987 18.1741 6.8404 18.1875 6.93415 18.2812C 7.01451 18.3616 7.04129 18.4821 6.98772 18.5357ZM 7.75112 18.8705C 7.72433 18.9509 7.60379 18.9911 7.49665 18.9509C 7.37612 18.9241 7.29576 18.8304 7.32254 18.75C 7.34933 18.6696 7.46987 18.6295 7.57701 18.6562C 7.69754 18.6964 7.7779 18.7902 7.75112 18.8705ZM 8.59487 18.9375C 8.59487 19.0179 8.50112 19.0848 8.38058 19.0848C 8.24665 19.0982 8.1529 19.0312 8.1529 18.9375C 8.1529 18.8571 8.24665 18.7902 8.36719 18.7902C 8.48772 18.7768 8.59487 18.8438 8.59487 18.9375ZM 9.37165 18.8036C 9.38504 18.8839 9.30469 18.9643 9.18415 18.9911C 9.06362 19.0179 8.95647 18.9643 8.94308 18.8839C 8.92969 18.7902 9.01004 18.7098 9.13058 18.683C 9.25112 18.6696 9.35826 18.7232 9.37165 18.8036Z"/>
</defs>
</svg>
