<svg width="22" height="21" viewBox="0 0 22 21" version="1.1" xmlns="http://www.w3.org/2000/svg" xmlns:xlink="http://www.w3.org/1999/xlink">
<title>&#239;&#138;&#179;</title>
<desc>Created using Figma</desc>
<g id="Canvas" transform="translate(-1485 421)">
<g id="&#239;&#138;&#179;">
<use xlink:href="#path0_fill" transform="translate(1484 -423)" fill="url(#paint0_linear)"/>
</g>
</g>
<defs>
<linearGradient id="paint0_linear" x1="0" y1="0" x2="1" y2="0" gradientUnits="userSpaceOnUse" gradientTransform="matrix(44.7408 2.0368e-06 -5.39081e-06 1093.5 2.77874e-06 -534.75)">
<stop offset="0" stop-color="#F27A54"/>
<stop offset="1" stop-color="#A154F2"/>
</linearGradient>
<path id="path0_fill" d="M 13.9922 12.5491C 13.9922 15.4821 12.0234 17.5714 9.06362 17.5714C 6.21094 17.5714 3.92076 15.2679 3.92076 12.4286C 3.92076 9.58929 6.21094 7.28571 9.06362 7.28571C 10.3627 7.28571 11.5547 7.74107 12.5056 8.625L 11.1127 9.97768C 10.5636 9.44196 9.81362 9.1875 9.06362 9.1875C 7.28237 9.1875 5.86272 10.6607 5.86272 12.4286C 5.86272 14.1964 7.28237 15.6696 9.06362 15.6696C 10.4163 15.6696 11.7556 14.8795 11.9699 13.4598L 9.06362 13.4598L 9.06362 11.692L 13.9118 11.692C 13.9654 11.9732 13.9922 12.2545 13.9922 12.5491ZM 18.6127 13.1652L 18.6127 14.6384L 17.1395 14.6384L 17.1395 13.1652L 15.6663 13.1652L 15.6663 11.692L 17.1395 11.692L 17.1395 10.2188L 18.6127 10.2188L 18.6127 11.692L 20.0725 11.692L 20.0725 13.1652L 18.6127 13.1652ZM 22.2824 12.4286C 22.2824 6.75 17.6752 2.14286 11.9967 2.14286C 6.31808 2.14286 1.71094 6.75 1.71094 12.4286C 1.71094 18.1071 6.31808 22.7143 11.9967 22.7143C 17.6752 22.7143 22.2824 18.1071 22.2824 12.4286Z"/>
</defs>
</svg>
