<svg width="22" height="18" viewBox="0 0 22 18" version="1.1" xmlns="http://www.w3.org/2000/svg" xmlns:xlink="http://www.w3.org/1999/xlink">
<title>&#239;&#130;&#153;</title>
<desc>Created using Figma</desc>
<g id="Canvas" transform="translate(-1293 420)">
<g id="&#239;&#130;&#153;">
<use xlink:href="#path0_fill" transform="translate(1292 -423)" fill="url(#paint0_linear)"/>
</g>
</g>
<defs>
<linearGradient id="paint0_linear" x1="0" y1="0" x2="1" y2="0" gradientUnits="userSpaceOnUse" gradientTransform="matrix(44.7408 2.0368e-06 -5.39081e-06 1093.5 2.77874e-06 -534.75)">
<stop offset="0" stop-color="#F27A54"/>
<stop offset="1" stop-color="#A154F2"/>
</linearGradient>
<path id="path0_fill" d="M 22.5519 5.89286C 21.7751 6.22768 20.9314 6.46875 20.0608 6.5625C 20.9581 6.02679 21.6412 5.18304 21.9626 4.17857C 21.1323 4.67411 20.1948 5.03571 19.2171 5.22321C 18.4269 4.37946 17.3019 3.85714 16.0564 3.85714C 13.659 3.85714 11.7305 5.79911 11.7305 8.18304C 11.7305 8.51786 11.7706 8.85268 11.8376 9.17411C 8.24833 8.98661 5.04743 7.27232 2.91797 4.64732C 2.54297 5.29018 2.32868 6.02679 2.32868 6.83036C 2.32868 8.33036 3.09208 9.65625 4.25725 10.433C 3.54743 10.4062 2.87779 10.2054 2.3019 9.88393C 2.3019 9.89732 2.3019 9.92411 2.3019 9.9375C 2.3019 12.0402 3.7885 13.7812 5.77065 14.183C 5.40904 14.2768 5.02065 14.3304 4.63225 14.3304C 4.351 14.3304 4.08315 14.3036 3.81529 14.2634C 4.3644 15.9777 5.95815 17.2232 7.85993 17.2634C 6.37333 18.4286 4.51172 19.1116 2.4894 19.1116C 2.12779 19.1116 1.79297 19.0982 1.44475 19.058C 3.35993 20.2902 5.63672 21 8.08761 21C 16.043 21 20.3956 14.4107 20.3956 8.69196C 20.3956 8.50446 20.3956 8.31696 20.3823 8.12946C 21.226 7.51339 21.9626 6.75 22.5519 5.89286Z"/>
</defs>
</svg>
