<svg xmlns="http://www.w3.org/2000/svg" width="94" height="30" viewBox="0 0 94 30">
    <path fill="#15AD56" fill-rule="evenodd" d="M7.81 22.681H0V1.512h5.377c4.867 0 8.022.756 8.022 5.383 0 1.875-.391 3.236-1.773 4.476 2.554.998 3.635 2.51 3.635 5.05 0 5.081-3.935 6.26-7.45 6.26zM6.7 4.597H3.514V10.1H7.21c1.292 0 2.794-.363 2.794-2.752 0-2.36-1.352-2.752-3.305-2.752zm.96 8.407H3.516v6.593H7.06c2.764 0 4.536-.635 4.536-3.236 0-2.631-1.742-3.357-3.935-3.357zM21.27 5.05h-3.425V1.512h3.424V5.05zm0 17.631h-3.425V7.651h3.424v15.03zm10.874.303c-1.502 0-2.823-.484-3.875-1.391V30h-3.395V7.651h2.884l.3 1.27c1.112-.967 2.224-1.542 4.086-1.542 4.597 0 7.12 3.63 7.12 7.802 0 4.265-2.463 7.803-7.12 7.803zm-.27-12.702c-2.313 0-3.755 1.845-3.755 4.9 0 3.114 1.442 4.929 3.755 4.929 2.463 0 3.905-2.087 3.905-4.93 0-2.873-1.442-4.899-3.905-4.899zm15.441 9.89l-.33 2.812h-1.202c-2.733 0-3.845-1.784-3.845-3.84V0h3.425v17.6c0 2.45.3 2.571 1.952 2.571zm15.081 0l-.33 2.812h-1.022c-1.952 0-2.914-.726-3.484-1.875-1.022 1.18-2.734 1.875-4.567 1.875-2.523 0-4.416-1.724-4.416-4.476 0-4.234 5.438-5.292 8.562-5.353-.06-2.056-.901-2.782-2.884-2.782-1.262 0-2.433.333-4.026 1.21L49.87 8.8c1.622-.907 3.425-1.421 5.317-1.421 3.485 0 5.378 1.724 5.378 6.411v3.75c0 2.238.21 2.631 1.442 2.631h.39zm-5.257-1.21v-3.478c-2.764.12-5.017.968-5.017 2.873 0 1.36.721 1.966 2.103 1.966.901 0 2.133-.484 2.914-1.361zm20.639 3.72h-3.395v-8.136c0-2.933-.931-4.264-3.245-4.264-1.382 0-2.493.514-3.214 1.482v10.917h-3.395V7.651h3.064l.12 1.12c1.142-.908 2.494-1.392 3.786-1.392 4.566 0 6.279 2.903 6.279 7.167v8.135zm16.012-6.956H83.786c.42 3.236 2.583 4.385 4.807 4.385 1.381 0 3.244-.484 4.506-1.12l.24 2.844c-1.141.574-2.854 1.149-4.987 1.149-5.377 0-8.081-3.599-8.081-7.833 0-4.173 2.584-7.772 7.21-7.772 3.725 0 6.519 2.48 6.519 6.472 0 .605-.09 1.21-.21 1.875zm-6.249-5.444c-2.073 0-3.214 1.27-3.605 3.115h6.58c0-1.572-.842-3.115-2.975-3.115z"/>
</svg>
