<svg xmlns="http://www.w3.org/2000/svg" width="291" height="288" viewBox="0 0 291 288">
    <g fill="none" fill-rule="evenodd">
        <path fill="#FFF" d="M-815-355h1920V937H-815z"/>
        <path fill="#CDCDCD" d="M71.065 79.728c-57.85 52.67-23.341 141.233 44.073 166.216 36.044 13.36 70.583-.38 94.968-28.214 32.743-37.379 53.569-86.7 22.627-131.772-31.315-45.627-89.456-74.053-143.127-53.277-41.35 16.006-62.227 58.501-62.698 100.94-.478 43.344 20.881 87.937 59.66 109.04 22.57 12.286 51.526 13.718 76.444 10.125 26.995-3.889 50.381-15.262 69.847-34.364 31.035-30.452 50.395-74.74 37.603-117.796-11.433-38.483-46.511-66.587-83.418-78.965-41.242-13.832-83.266-4.98-116.574 22.466-38.061 31.369-55.23 83.002-48.68 131.162 6.918 50.873 46.743 98.348 97.58 110.189 49.42 11.514 98.553-18.722 129.116-55.54 34.798-41.932 39.047-99.783 18.423-149.16-17.46-41.8-57.825-71.302-102.072-79.16-66.165-11.75-114.99 44.516-135.284 101-18.74 52.17-21.636 129.01 28.857 164.946 54.571 38.84 129.429-.137 169.72-41.364 23.48-24.022 40.837-56.561 39.291-90.914-2.167-48.068-36.87-93.052-76.944-117.098C165.714 3.33 135.63-2.838 107.147 1.903c-23.905 3.979-44.936 19.976-62.34 36.023C17.512 63.093.298 97.776.24 135.157c-.103 63.331 52.662 127.278 118.555 126.266 27.89-.43 53.05-14.515 72.677-33.504 1.3-1.261.7-4.573-1.173-2.76-27.763 26.865-64.66 39.604-102.334 27.851-32.802-10.23-58.872-36.914-73.2-67.52-16.428-35.087-15.039-75.524 3.298-109.528 11.788-21.859 30.42-39.381 50.626-53.388C96.467 3.325 127.711-.02 159.957 9.221c52.029 14.913 99.409 68.603 104.364 123.242 3.706 40.878-20.675 77.44-50.266 103.132-46.524 40.396-130.275 68.99-173.745 8.48C1.343 189.833 21.492 103.987 57.682 53.977 77.274 26.903 106.16 6.633 140.104 4.105c42.897-3.19 88.779 22.9 112.463 57.5 38.005 55.511 29.809 130.213-16.138 177.732-19.899 20.581-45.618 36.188-73.58 42.654-30.342 7.019-59.342-3.312-84.351-20.428-50.016-34.223-66.157-99.713-47.352-155.58 17.49-51.964 67.311-90.15 122.676-86.906 43.159 2.53 85.663 28.45 106.551 66.377 27.492 49.909.64 108.231-40.934 141.057-44.83 35.395-120.105 33.368-159.027-9.469C26.246 179.436 19.506 116.931 45.52 73.335c14.253-23.888 38.765-37.965 65.538-43.22 32.684-6.412 65.282 8.371 90.44 28.266 24.96 19.74 45.436 47.84 44.285 80.825-1.073 30.853-21.393 58.587-41.18 80.653-60.488 67.459-166.294-3.406-160.919-83.014 1.447-21.467 12.943-40.15 28.552-54.362 1.349-1.229.757-4.513-1.17-2.755"/>
        <path fill="#99F0BD" fill-rule="nonzero" d="M206 146l4-5-1-4 1-4 3-3.62h5.436c1.618-.025 2.806.182 3.564.62 1.622.937 3.27 3.274 4.135 4 1.47 1.234 2.426 2.568 2.865 4l10.119 8.734 10.761 11.708H256l4 4.558-1.168 5.18L289 201l-2 6-3 3h-5l-5-2-5 4-6-1-23.713-23.713L218.436 204 225 220l-4 2-10-7-2-5-12 9 9.518-11.826L202 206l-7-12 3-3 15 8 17-21-18-19-6-7v-6z"/>
        <path fill="#15AD56" fill-rule="nonzero" d="M287.576 209.598c3.799-3.667 3.894-9.754.212-13.566l-26.636-27.582 1.768-1.708-.24-.882c-.614-2.255-1.593-4.042-2.705-5.468l1.02-.985 6.452 6.681 2.222-2.146-6.452-6.681 2.081-2.01-2.154-2.23-2.082 2.01-6.655-6.891-2.222 2.146 6.655 6.891-1.022.987c-2.646-2.213-5.282-2.88-5.47-2.923l-.822-.195-1.717 1.659-25.775-26.69c-3.681-3.813-9.767-3.93-13.565-.262-3.036 2.93-3.698 7.402-1.968 11.027a9.881 9.881 0 0 0-1.374 1.108c-3.912 3.778-4.01 10.047-.218 13.974l21.252 22.006-15.355 19.192-13.372-6.914-.18-.08c-.25-.09-2.486-.849-4.324.469-1.339.96-1.987 2.66-1.928 5.053l.013.515 8.716 11.078 2.395.728-9.493 11.864a1.548 1.548 0 0 0 .099 2.042l.008.008c.549.56 1.428.624 2.048.148l12.028-9.235.655 2.463 10.767 9.097.516.032c2.39.142 4.11-.446 5.117-1.75 1.382-1.793.701-4.054.62-4.304l-6.496-14.119 19.265-14.791 20.52 21.249c3.791 3.926 10.06 4.047 13.972.268.315-.304.6-.63.869-.97 3.716 3.235 9.36 3.16 12.955-.313zM258.5 188.827l9.333-9.013 10.483 10.855-9.333 9.013-10.483-10.855zm-21.496-6.251l5.777-5.58 16.8 17.397-5.777 5.58-16.8-17.397zm-20.677-21.412l5.778-5.579 18.523 19.181-5.778 5.58-18.523-19.182zm14.477-1.018l9.333-9.013 25.543 26.45-9.334 9.014-25.542-26.45zm-2.154-2.23l-10.354-10.722 9.333-9.013 10.355 10.723-9.333 9.013-.001-.001zm23.761.585a11.871 11.871 0 0 1 7.019 7.303l-.43.415-7.037-7.286.448-.432zm-39.787-26.519c2.574-2.485 6.696-2.405 9.19.177l3.661 3.792-9.333 9.013-3.661-3.792c-2.495-2.583-2.43-6.704.143-9.19zm-3.343 12.135a6.84 6.84 0 0 1 .989-.786l9.68 10.024-5.779 5.58-5.04-5.22c-2.603-2.698-2.537-7.003.15-9.598zm-5.726 60.388l-7.456-9.479c.034-.987.26-1.692.634-1.968.409-.3 1.114-.186 1.404-.105l12.7 6.567-4.63 5.79-2.652-.805zm20.01 14.772c.074.305.162 1.013-.152 1.409-.287.366-1 .565-1.989.566l-9.212-7.783-.738-2.772 6.01-4.615 6.08 13.195zm-18.52-7.554l25.289-31.607 6.76 7-32.049 24.607zm56.959-3.259l-6.047-6.261 5.778-5.58 10.683 11.063a6.725 6.725 0 0 1-.818.962c-2.688 2.596-6.992 2.513-9.596-.184zm14.23-1.273l-5.098-5.28 9.333-9.012 5.098 5.279c2.494 2.583 2.43 6.705-.143 9.19-2.574 2.485-6.696 2.405-9.19-.177z"/>
    </g>
</svg>
