<?xml version="1.0" encoding="UTF-8"?>
<svg width="15px" height="15px" viewBox="0 0 15 15" version="1.1" xmlns="http://www.w3.org/2000/svg" xmlns:xlink="http://www.w3.org/1999/xlink">
    <!-- Generator: sketchtool 51 (57462) - http://www.bohemiancoding.com/sketch -->
    <title>1D76D3AF-6AEF-4F5A-B4EB-598BE76E2097</title>
    <desc>Created with sketchtool.</desc>
    <defs></defs>
    <g id="Symbols" stroke="none" stroke-width="1" fill="none" fill-rule="evenodd">
        <g id="@Icons/icon-button-edit" fill="#999999" fill-rule="nonzero">
            <path d="M0.0158562368,11.25 C0.0158562368,11.0759494 0.0951374207,10.9177215 0.206131078,10.7911392 L8.705074,2.32594937 L10.8298097,0.189873418 C11.0993658,-0.0632911392 11.5116279,-0.0632911392 11.7653277,0.189873418 L14.8097252,3.25949367 C15.0634249,3.52848101 15.0634249,3.93987342 14.8097252,4.19303797 L4.18604651,14.7943038 C4.05919662,14.9208861 3.90063425,14.9841772 3.72621564,14.9841772 L0.650105708,15 C0.475687104,15 0.317124736,14.9367089 0.190274841,14.8101266 C0.0634249471,14.6835443 0,14.5094937 0,14.335443 L0.0158562368,11.25 Z M11.3054968,1.58227848 L10.1004228,2.78481013 L12.2410148,4.92088608 L13.4460888,3.71835443 L11.3054968,1.58227848 Z M1.33192389,11.5348101 L1.31606765,13.6708861 L3.47251586,13.6550633 L11.3054968,5.85443038 L9.16490486,3.71835443 L1.33192389,11.5348101 Z"></path>
        </g>
    </g>
</svg>