<svg xmlns="http://www.w3.org/2000/svg" width="119" height="114" viewBox="0 0 119 114">
    <g fill="none" fill-rule="evenodd">
        <path d="M-1499-481H421V838h-1920z"/>
        <path fill="#15AD56" fill-rule="nonzero" d="M108.984 47.36a4.811 4.811 0 0 1 4.807 4.817v4.853c-.009 15.228-5.935 29.538-16.687 40.298C86.36 108.08 72.08 114 56.896 114h-.033c-15.197-.009-29.482-5.946-40.222-16.718C5.901 86.51-.009 72.192 0 56.968.009 41.742 5.935 27.43 16.687 16.672 27.431 5.92 41.711 0 56.895 0h.033c8.02.004 15.8 1.665 23.124 4.935a4.82 4.82 0 0 1 2.435 6.358 4.803 4.803 0 0 1-6.347 2.44 46.914 46.914 0 0 0-19.217-4.101h-.028c-12.619 0-24.484 4.92-33.413 13.854-8.936 8.942-13.86 20.834-13.868 33.487-.015 26.119 21.183 47.38 47.255 47.395h.027c12.62 0 24.485-4.92 33.414-13.854 8.935-8.942 13.86-20.834 13.867-33.487v-4.85a4.811 4.811 0 0 1 4.807-4.816zm8.608-40.701a4.822 4.822 0 0 1 0 6.81L60.295 70.872a4.787 4.787 0 0 1-3.399 1.41c-1.23 0-2.46-.47-3.4-1.41L37.87 55.216a4.822 4.822 0 0 1 0-6.81 4.8 4.8 0 0 1 6.798 0l12.228 12.25 53.898-53.997a4.801 4.801 0 0 1 6.798 0z"/>
    </g>
</svg>
